<?xml version="1.0" encoding="UTF-8" standalone="no"?>
<svg
   xmlns:dc="http://purl.org/dc/elements/1.1/"
   xmlns:cc="http://creativecommons.org/ns#"
   xmlns:rdf="http://www.w3.org/1999/02/22-rdf-syntax-ns#"
   xmlns:svg="http://www.w3.org/2000/svg"
   xmlns="http://www.w3.org/2000/svg"
   xmlns:sodipodi="http://sodipodi.sourceforge.net/DTD/sodipodi-0.dtd"
   xmlns:inkscape="http://www.inkscape.org/namespaces/inkscape"
   sodipodi:docname="park_aviatorov.svg"
   inkscape:version="1.0 (4035a4fb49, 2020-05-01)"
   id="svg8"
   version="1.1"
   viewBox="0 0 13.229166 13.229167"
   height="50"
   width="50">
  <defs
     id="defs2">
    <clipPath
       id="clipPath858"
       clipPathUnits="userSpaceOnUse">
      <rect
         y="5.1928501"
         x="0.38458359"
         height="4.7890277"
         width="9.9874325"
         id="rect860"
         style="fill:#fcfbf9;stroke:#000000;stroke-width:0.0649999;stroke-miterlimit:4;stroke-dasharray:none" />
    </clipPath>
    <clipPath
       id="clipPath862"
       clipPathUnits="userSpaceOnUse">
      <rect
         y="5.1928501"
         x="0.38458359"
         height="4.7890277"
         width="9.9874325"
         id="rect864"
         style="fill:#fcfbf9;stroke:#000000;stroke-width:0.0649999;stroke-miterlimit:4;stroke-dasharray:none" />
    </clipPath>
    <clipPath
       id="clipPath866"
       clipPathUnits="userSpaceOnUse">
      <rect
         y="5.1928501"
         x="0.38458359"
         height="4.7890277"
         width="9.9874325"
         id="rect868"
         style="fill:#fcfbf9;stroke:#000000;stroke-width:0.0649999;stroke-miterlimit:4;stroke-dasharray:none" />
    </clipPath>
    <clipPath
       id="clipPath870"
       clipPathUnits="userSpaceOnUse">
      <rect
         y="5.1928501"
         x="0.38458359"
         height="4.7890277"
         width="9.9874325"
         id="rect872"
         style="fill:#fcfbf9;stroke:#000000;stroke-width:0.0649999;stroke-miterlimit:4;stroke-dasharray:none" />
    </clipPath>
    <clipPath
       clipPathUnits="userSpaceOnUse"
       id="clipPath861">
      <rect
         style="fill:#fcfbf9;stroke:#000000;stroke-width:0.238342;stroke-miterlimit:4;stroke-dasharray:none"
         id="rect863"
         width="12.993057"
         height="8.9663734"
         x="1.2019029"
         y="-19.268944"
         transform="matrix(0.99474647,-0.10236928,-0.22897327,0.97343271,0,0)" />
    </clipPath>
    <clipPath
       clipPathUnits="userSpaceOnUse"
       id="clipPath870-6">
      <rect
         style="fill:#fcfbf9;stroke:#000000;stroke-width:0.0649999;stroke-miterlimit:4;stroke-dasharray:none"
         id="rect872-0"
         width="9.9874325"
         height="4.7890277"
         x="0.38458359"
         y="5.1928501" />
    </clipPath>
    <clipPath
       clipPathUnits="userSpaceOnUse"
       id="clipPath866-6">
      <rect
         style="fill:#fcfbf9;stroke:#000000;stroke-width:0.0649999;stroke-miterlimit:4;stroke-dasharray:none"
         id="rect868-2"
         width="9.9874325"
         height="4.7890277"
         x="0.38458359"
         y="5.1928501" />
    </clipPath>
    <clipPath
       clipPathUnits="userSpaceOnUse"
       id="clipPath862-2">
      <rect
         style="fill:#fcfbf9;stroke:#000000;stroke-width:0.0649999;stroke-miterlimit:4;stroke-dasharray:none"
         id="rect864-3"
         width="9.9874325"
         height="4.7890277"
         x="0.38458359"
         y="5.1928501" />
    </clipPath>
  </defs>
  <sodipodi:namedview
     inkscape:window-maximized="1"
     inkscape:window-y="31"
     inkscape:window-x="0"
     inkscape:window-height="1021"
     inkscape:window-width="1920"
     inkscape:snap-nodes="false"
     units="px"
     showgrid="false"
     inkscape:document-rotation="0"
     inkscape:current-layer="layer1"
     inkscape:document-units="mm"
     inkscape:cy="25.231313"
     inkscape:cx="47.732709"
     inkscape:zoom="7.5482685"
     inkscape:pageshadow="2"
     inkscape:pageopacity="0.0"
     borderopacity="1.0"
     bordercolor="#666666"
     pagecolor="#ffffff"
     id="base" />
  <metadata
     id="metadata5">
    <rdf:RDF>
      <cc:Work
         rdf:about="">
        <dc:format>image/svg+xml</dc:format>
        <dc:type
           rdf:resource="http://purl.org/dc/dcmitype/StillImage" />
        <dc:title></dc:title>
      </cc:Work>
    </rdf:RDF>
  </metadata>
  <g
     id="layer1"
     inkscape:groupmode="layer"
     inkscape:label="Layer 1">
    <path
       style="fill:none;stroke:#000000;stroke-width:0.0752927px;stroke-linecap:butt;stroke-linejoin:miter;stroke-opacity:1"
       d="M 3.3662428,13.262772 3.3224767,12.02469 c 0,0 -0.0073,-0.05415 -0.1094137,-0.314032 -0.1021184,-0.259889 0.054706,-0.08302 0.054706,-0.08302 0,0 0.1641179,-0.184085 0.3501187,-0.595578 0.186,-0.411494 -0.1203534,-1.4149528 -0.1203534,-1.4149528 L 11.170989,1.9467725 0.43763815,10.281268 0.95187692,10.187421 1.4879976,9.8878278 1.8527053,10.079135 0.06928444,13.190583 Z"
       id="path888"
       sodipodi:nodetypes="cccccccscscc" />
    <path
       style="fill:#000000;fill-opacity:1;stroke:#000200;stroke-width:0.0305527;stroke-miterlimit:4;stroke-dasharray:none"
       d="m 1.0311496,13.149282 c -0.45825261,-0.0084 -0.83318601,-0.0251 -0.83318601,-0.03717 0,-0.01207 0.36407327,-0.781307 0.85769581,-1.633394 0.4936218,-0.852085 0.8276831,-1.445984 0.9590433,-1.5478239 0.02703,-0.020948 -0.2347478,0.1353609 -0.3283383,0.019081 L 1.5604116,9.7934722 1.0966502,10.027793 C 0.94953624,10.102124 0.67423412,10.197015 0.63515994,10.188395 0.59608722,10.179777 3.0211935,8.2308059 5.7375446,6.1411499 8.4538952,4.0514927 10.685335,2.3515468 10.696301,2.3634917 c 0.01097,0.011951 -1.5670308,1.5933444 -3.5066585,3.5142214 -3.2242237,3.1930536 -3.524367,3.503799 -3.5006097,3.6242548 0.014292,0.072463 0.06022,0.3043295 0.1020598,0.5152581 0.041839,0.210929 0.066577,0.478957 0.054971,0.595616 -0.026837,0.269759 -0.3374876,0.843305 -0.4347359,0.802653 -0.089297,-0.03732 -0.089964,0.122537 -0.00158,0.377613 0.037603,0.108515 0.075932,0.455433 0.087684,0.793617 L 3.380062,13.253893 2.5949663,13.200901 c -0.525771,-0.03549 -1.1055671,-0.04326 -1.563819,-0.05163 z"
       id="path936"
       sodipodi:nodetypes="ssssscssssssssssscsss" />
    <path
       style="fill:none;stroke:#000000;stroke-width:0.0752927px;stroke-linecap:butt;stroke-linejoin:miter;stroke-opacity:1"
       d="M 6.7599164,5.057718 C 8.319054,4.5487651 12.374636,0.76771327 12.374636,0.76771327 c 0,0 -0.126097,-0.28854425 -0.311831,-0.33492214 -0.27042,-0.0675247 -0.778654,0.25009608 -0.778654,0.25009608 l -0.412123,-0.012632 c 0,0 -1.0230116,0.76703889 -1.0467194,0.90961849 C 9.8016036,1.7224527 9.4806565,2.1808707 9.3183605,2.2097484 9.1560644,2.2386243 8.9372394,2.6916289 8.7712957,2.6501191 8.6053519,2.608605 8.2479357,2.7908934 8.2479357,2.7908934 L 7.7045168,3.3106743 7.5969273,3.5073969 7.1191574,3.7636789 c 0,0 -1.3749598,0.072192 -1.4333133,0.1209211 C 5.6274902,3.9333318 5.3649002,3.9549879 5.2336035,4.1282482 5.1023075,4.3015095 5.1205434,4.4440878 5.1205434,4.4440878 L 4.7357742,4.6317865 5.8226111,4.7689514 c 0,0 0.04505,0.00952 0.070144,0.088311 0.035699,0.1120731 0.071858,0.1114865 0.071858,0.1114865 l 0.086231,0.061896 c 0,0 -0.063251,-0.037525 -0.00152,0.00859 0.08854,0.066125 0.1263527,0.090344 0.1716745,0.1346893 0.036611,0.04686 -0.015267,-0.0088 0.067752,0.067384 0.00815,0.00747 0.1039329,-0.056563 0.1039329,-0.056563 z"
       id="path890"
       sodipodi:nodetypes="ccsccsssccccsscccsccscscc" />
    <path
       style="fill:none;stroke:#000000;stroke-width:0.0469542;stroke-linecap:butt;stroke-linejoin:miter;stroke-miterlimit:4;stroke-dasharray:none;stroke-opacity:1"
       d="M 12.39832,0.7504801 13.169876,0.12190024"
       id="path892"
       sodipodi:nodetypes="cc" />
    <path
       style="fill:none;stroke:#000000;stroke-width:0.0752927px;stroke-linecap:butt;stroke-linejoin:miter;stroke-opacity:1"
       d="M 7.7181536,3.3662874 5.8278666,4.8095096"
       id="path896" />
    <path
       style="fill:none;stroke:#000000;stroke-width:0.0469542;stroke-linecap:butt;stroke-linejoin:miter;stroke-miterlimit:4;stroke-dasharray:none;stroke-opacity:1"
       d="M 11.215183,0.69810459 9.6489465,1.9676069"
       id="path904" />
    <path
       sodipodi:type="star"
       style="fill:#000000;fill-opacity:1;stroke:#000200;stroke-width:0.0458835;stroke-miterlimit:4;stroke-dasharray:none"
       id="path906"
       sodipodi:sides="5"
       sodipodi:cx="5.8219786"
       sodipodi:cy="4.9149766"
       sodipodi:r1="0.26769948"
       sodipodi:r2="0.13384974"
       sodipodi:arg1="-0.18668232"
       sodipodi:arg2="0.44163621"
       inkscape:flatsided="false"
       inkscape:rounded="0"
       inkscape:randomized="0"
       d="m 6.0850269,4.8652916 -0.142041,0.106895 0.00753,0.1776103 L 5.804962,5.0477403 5.6383721,5.1097885 5.6904544,4.9398191 5.5799639,4.8005567 l 0.1777449,-0.00299 0.098303,-0.1481171 0.05777,0.1681213 z"
       inkscape:transform-center-x="-0.01026264"
       inkscape:transform-center-y="-0.016475454"
       transform="matrix(0.97583282,0,0,1.0731499,0.00166782,-0.97133539)" />
    <path
       style="fill:#c9c8c8;fill-opacity:1;stroke:#000200;stroke-width:0.0164082;stroke-miterlimit:4;stroke-dasharray:none"
       d="M 5.3594464,4.6602485 4.9109966,4.6016234 5.0395525,4.5419144 c 0.099269,-0.046105 0.1285555,-0.073536 0.1285555,-0.1204063 0,-0.093918 0.08038,-0.2975056 0.1689197,-0.357684 C 5.5454428,3.9221714 5.8729524,3.8293351 6.807224,3.8323583 7.0241911,3.8331018 7.0816309,3.8168207 7.0244807,3.8649885 6.8547366,4.0080569 5.8455121,4.7252821 5.8281798,4.7223294 5.81702,4.7204089 5.6060937,4.6924933 5.3594464,4.6602472 Z M 5.830698,4.4287857 c 0,-0.1004426 0.026669,-0.060936 0.090799,-0.1130824 C 6.011191,4.2427773 5.984023,4.2301893 5.865444,4.2057254 5.790476,4.1902624 5.795757,4.1996554 5.770218,4.1058794 5.753847,4.0457864 5.730547,3.9533671 5.722379,3.9535554 c -0.00816,1.573e-4 -0.046802,0.076835 -0.077978,0.1297623 -0.04914,0.083423 -0.063558,0.063039 -0.1503611,0.063039 -0.055072,0 -0.1001282,0.00751 -0.1001282,0.016714 0,0.00919 0.067887,0.077227 0.1012002,0.1207668 0.053895,0.070436 0.016951,0.064989 -0.0072,0.1515162 -0.014928,0.053483 -0.021846,0.1030599 -0.015391,0.1101687 0.00647,0.0071 0.086777,-0.021924 0.1366979,-0.038776 0.079207,-0.026732 0.036611,-0.043639 0.098605,0.00719 0.099021,0.081189 0.1228646,0.049785 0.1228646,-0.085148 z"
       id="path908"
       sodipodi:nodetypes="scssssssssssscsssssssss" />
    <path
       style="fill:none;stroke:#000000;stroke-width:0.0752927px;stroke-linecap:butt;stroke-linejoin:miter;stroke-opacity:1"
       d="M 5.9044183,4.7225468 5.5582757,5.3930732 7.0907746,4.0871566 c 0,0 0.072482,-0.060026 0.00591,-0.2210684 z"
       id="path912" />
    <path
       style="fill:#c9c8c8;fill-opacity:1;stroke:#000200;stroke-width:0.00765912;stroke-miterlimit:4;stroke-dasharray:none"
       d="m 5.7199452,5.1814871 c 0.00378,-0.011486 0.054176,-0.111873 0.1119634,-0.2230825 L 5.9369766,4.7562048 6.5019353,4.3501555 C 7.0602888,3.9488542 7.0649989,3.8972035 7.0658,3.9563157 c 9.35e-5,0.00728 0.013571,0.06137 0.00394,0.076517 C 7.06009,4.0479797 6.7610121,4.3080851 6.4051146,4.6108442 6.0492182,4.9136039 5.7479134,5.1705532 5.735548,5.1818433 5.714941,5.2006643 5.71364,5.2006333 5.71996,5.1814555 Z"
       id="path914"
       sodipodi:nodetypes="cscscssscc" />
    <path
       style="fill:none;stroke:#000000;stroke-width:0.0752927px;stroke-linecap:butt;stroke-linejoin:miter;stroke-opacity:1"
       d="M 7.3067429,4.2745523 7.2448791,4.712357 6.4650516,6.0108939 10.864329,1.4621475 Z"
       id="path916"
       sodipodi:nodetypes="ccccc" />
    <path
       style="fill:#c9c8c8;fill-opacity:1;stroke:#000200;stroke-width:0.00765912;stroke-miterlimit:4;stroke-dasharray:none"
       d="m 6.7251684,5.6707349 c 0,-0.00378 0.1260576,-0.2169375 0.2801283,-0.4735851 L 7.2854255,4.730517 7.3152093,4.5191366 C 7.3315856,4.4028774 7.349145,4.3033117 7.3542206,4.2978785 7.374591,4.2760714 10.425615,1.8523736 10.428579,1.8557729 10.430382,1.8577554 9.7767579,2.522019 9.1291075,3.1914271 8.4814566,3.8608346 7.6756231,4.6940922 7.3383665,5.0431103 7.0011094,5.3921279 6.7251718,5.6745586 6.7251718,5.6707349 Z"
       id="path918"
       sodipodi:nodetypes="sscsscsss" />
    <path
       style="fill:#bfafae;fill-opacity:1;stroke:#000200;stroke-width:0.0133133;stroke-miterlimit:4;stroke-dasharray:none"
       d="M 9.7256548,1.8592961 C 9.7303876,1.8488115 9.8304775,1.7358474 9.8403715,1.6742435 9.8603566,1.5498079 9.9824176,1.4526044 10.292342,1.178858 c 0.2954,-0.26091844 0.453613,-0.40717858 0.574591,-0.45990222 0.09622,-0.041929 0.195505,-0.0188767 0.253889,-9.2935e-4 0.0441,0.0135367 -0.07401,0.0690711 -0.45271,0.37585447 -0.234435,0.1899128 -0.530379,0.4299008 -0.657654,0.5333075 -0.1272738,0.1034066 -0.2894878,0.242618 -0.2848032,0.232127 z"
       id="path934"
       sodipodi:nodetypes="ssssssss" />
    <path
       style="fill:#c0bdbc;fill-opacity:1;stroke:#000200;stroke-width:0.00622823;stroke-miterlimit:4;stroke-dasharray:none"
       d="M 6.2526032,5.1477592 C 6.2310665,5.1261631 6.1850999,5.0872754 6.1504554,5.0613534 6.1158104,5.0354326 6.087362,5.0112094 6.0872371,5.0075167 6.0871149,5.0038036 6.3208971,4.8016439 6.6067585,4.5582181 6.8926199,4.314793 7.1336867,4.1035879 7.1424624,4.0888749 c 0.017272,-0.028957 0.021998,-0.1380837 0.00848,-0.1957835 -0.00739,-0.031552 -0.00601,-0.033021 0.1274929,-0.1349384 0.076247,-0.05821 0.1810114,-0.1269304 0.2408009,-0.1579541 0.093735,-0.048638 0.1083828,-0.059908 0.1281132,-0.098564 0.012253,-0.024006 0.038921,-0.055763 0.05927,-0.070569 0.030449,-0.022154 0.035361,-0.030282 0.027756,-0.045901 -0.00507,-0.010442 -0.00673,-0.025215 -0.00372,-0.032834 0.0031,-0.00761 0.1269347,-0.1290989 0.2752943,-0.2699579 0.2617589,-0.2485233 0.2722404,-0.2571675 0.3539359,-0.2918718 0.1714493,-0.072831 0.2282334,-0.087555 0.3651358,-0.09468 0.1185971,-0.00619 0.1322615,-0.00904 0.1761869,-0.036893 0.026455,-0.016783 0.108981,-0.09872 0.1857107,-0.1844015 0.1575003,-0.1758782 0.1886982,-0.2036829 0.2520604,-0.2246543 0.064975,-0.021504 0.140412,-0.080058 0.2285077,-0.1773637 0.042109,-0.046514 0.081483,-0.083413 0.087498,-0.082001 0.00602,0.00143 0.3627569,-0.2826674 0.7927609,-0.6312864 0.685545,-0.55579618 0.785962,-0.63385388 0.815412,-0.63385388 0.02116,0 0.0679,-0.0188896 0.126268,-0.0510176 0.308587,-0.16987373 0.583019,-0.24052766 0.702193,-0.18078412 0.0401,0.0201033 0.1,0.070859 0.1,0.0847391 0,0.004464 0.109106,0.092029 0.07637,0.10760141 C 12.095296,0.76804721 11.516026,1.3068123 11.219191,1.5849807 11.122173,1.6759005 9.7407516,3.0161099 9.8137388,2.929084 10.005631,2.7002857 10.900052,1.4430938 10.921056,1.4408505 10.961709,1.436515 9.99095,2.0978751 9.029779,2.856776 8.0686079,3.6156776 7.2789958,4.239756 7.2750839,4.2436193 c -0.00388,0.00384 -0.02135,0.1065617 -0.038758,0.2282221 l -0.031642,0.2211998 -0.050847,0.085178 c -0.027969,0.046848 -0.057705,0.089214 -0.066083,0.094145 -0.057401,0.033783 -0.2673737,0.1174852 -0.4748812,0.1893031 -0.1343476,0.046495 -0.2577828,0.093726 -0.2742999,0.1049508 -0.016517,0.011226 -0.033812,0.020414 -0.038437,0.020414 -0.00462,0 -0.026021,-0.017675 -0.047557,-0.039277 z"
       id="path940"
       sodipodi:nodetypes="sscsssssssscssssssscsscssssssssscsssssss" />
    <path
       style="fill:none;stroke:#000000;stroke-width:0.028457;stroke-linecap:butt;stroke-linejoin:miter;stroke-miterlimit:4;stroke-dasharray:none;stroke-opacity:1"
       d="M 10.874356,1.4966473 9.6846837,3.0681499"
       id="path944" />
    <path
       style="fill:#adadac;fill-opacity:1;stroke:#000200;stroke-width:0.00377469;stroke-miterlimit:4;stroke-dasharray:none"
       d="M 8.5056942,3.9628746 C 8.603845,3.8564579 10.726494,1.6531395 10.72896,1.6558505 c 0.0018,0.00199 -0.302081,0.3981733 -0.564962,0.7457523 -0.2628828,0.3475789 -0.482851,0.6394518 -0.4888178,0.6486064 -0.02663,0.040857 -1.1005359,0.8788296 -1.1262648,0.8788296 -0.00434,0 -0.053585,0.045033 -0.04322,0.033839 z"
       id="path946"
       sodipodi:nodetypes="cssssc" />
    <path
       style="fill:#a0a0a0;fill-opacity:1;stroke:#000200;stroke-width:0.00375397;stroke-miterlimit:4;stroke-dasharray:none"
       d="m 9.7678154,2.9777848 c 0.00176,-0.00223 0.4663686,-0.3908208 0.7796166,-0.742325 0.281403,-0.3157715 0.492857,-0.4757008 0.590101,-0.5863596 0.01749,-0.019905 0.216963,-0.2088707 0.282612,-0.2716647 0.109867,-0.1050882 0.342263,-0.37819249 0.605732,-0.54232648 0.245845,-0.15315598 0.185906,-0.12674458 0.263178,-0.16345618 0.04038,-0.0191868 -0.03312,-0.0374808 -0.03663,-0.047591 -0.01035,-0.0298304 0.0047,-0.0129787 0.03812,0.0426663 0.01891,0.0315023 0.03141,0.0956155 0.03141,0.10036742 0,0.004776 -0.06012,0.0607628 -0.144543,0.13826023 C 11.477888,1.5474766 10.778846,2.1345913 10.134162,2.7033911 9.85905,2.9461193 9.7461995,3.0037842 9.7678116,2.9777861 Z"
       id="path948"
       sodipodi:nodetypes="sssssssssssss" />
  </g>
</svg>
