<?xml version="1.0" encoding="UTF-8" standalone="no"?>
<svg
   xmlns:dc="http://purl.org/dc/elements/1.1/"
   xmlns:cc="http://creativecommons.org/ns#"
   xmlns:rdf="http://www.w3.org/1999/02/22-rdf-syntax-ns#"
   xmlns:svg="http://www.w3.org/2000/svg"
   xmlns="http://www.w3.org/2000/svg"
   xmlns:sodipodi="http://sodipodi.sourceforge.net/DTD/sodipodi-0.dtd"
   xmlns:inkscape="http://www.inkscape.org/namespaces/inkscape"
   width="50"
   height="50"
   viewBox="0 0 13.229166 13.229167"
   version="1.1"
   id="svg8"
   inkscape:version="1.0 (4035a4fb49, 2020-05-01)"
   sodipodi:docname="to_first_pilots.svg">
  <defs
     id="defs2">
    <clipPath
       clipPathUnits="userSpaceOnUse"
       id="clipPath858">
      <rect
         style="fill:#fcfbf9;stroke:#000000;stroke-width:0.0649999;stroke-miterlimit:4;stroke-dasharray:none"
         id="rect860"
         width="9.9874325"
         height="4.7890277"
         x="0.38458359"
         y="5.1928501" />
    </clipPath>
    <clipPath
       clipPathUnits="userSpaceOnUse"
       id="clipPath862">
      <rect
         style="fill:#fcfbf9;stroke:#000000;stroke-width:0.0649999;stroke-miterlimit:4;stroke-dasharray:none"
         id="rect864"
         width="9.9874325"
         height="4.7890277"
         x="0.38458359"
         y="5.1928501" />
    </clipPath>
    <clipPath
       clipPathUnits="userSpaceOnUse"
       id="clipPath866">
      <rect
         style="fill:#fcfbf9;stroke:#000000;stroke-width:0.0649999;stroke-miterlimit:4;stroke-dasharray:none"
         id="rect868"
         width="9.9874325"
         height="4.7890277"
         x="0.38458359"
         y="5.1928501" />
    </clipPath>
    <clipPath
       clipPathUnits="userSpaceOnUse"
       id="clipPath870">
      <rect
         style="fill:#fcfbf9;stroke:#000000;stroke-width:0.0649999;stroke-miterlimit:4;stroke-dasharray:none"
         id="rect872"
         width="9.9874325"
         height="4.7890277"
         x="0.38458359"
         y="5.1928501" />
    </clipPath>
    <clipPath
       id="clipPath861"
       clipPathUnits="userSpaceOnUse">
      <rect
         transform="matrix(0.99474647,-0.10236928,-0.22897327,0.97343271,0,0)"
         y="-19.268944"
         x="1.2019029"
         height="8.9663734"
         width="12.993057"
         id="rect863"
         style="fill:#fcfbf9;stroke:#000000;stroke-width:0.238342;stroke-miterlimit:4;stroke-dasharray:none" />
    </clipPath>
    <clipPath
       id="clipPath870-6"
       clipPathUnits="userSpaceOnUse">
      <rect
         y="5.1928501"
         x="0.38458359"
         height="4.7890277"
         width="9.9874325"
         id="rect872-0"
         style="fill:#fcfbf9;stroke:#000000;stroke-width:0.0649999;stroke-miterlimit:4;stroke-dasharray:none" />
    </clipPath>
    <clipPath
       id="clipPath866-6"
       clipPathUnits="userSpaceOnUse">
      <rect
         y="5.1928501"
         x="0.38458359"
         height="4.7890277"
         width="9.9874325"
         id="rect868-2"
         style="fill:#fcfbf9;stroke:#000000;stroke-width:0.0649999;stroke-miterlimit:4;stroke-dasharray:none" />
    </clipPath>
    <clipPath
       id="clipPath862-2"
       clipPathUnits="userSpaceOnUse">
      <rect
         y="5.1928501"
         x="0.38458359"
         height="4.7890277"
         width="9.9874325"
         id="rect864-3"
         style="fill:#fcfbf9;stroke:#000000;stroke-width:0.0649999;stroke-miterlimit:4;stroke-dasharray:none" />
    </clipPath>
  </defs>
  <sodipodi:namedview
     id="base"
     pagecolor="#ffffff"
     bordercolor="#666666"
     borderopacity="1.0"
     inkscape:pageopacity="0.0"
     inkscape:pageshadow="2"
     inkscape:zoom="9.9461317"
     inkscape:cx="29.872072"
     inkscape:cy="25.637352"
     inkscape:document-units="mm"
     inkscape:current-layer="layer1"
     inkscape:document-rotation="0"
     showgrid="false"
     units="px"
     inkscape:snap-nodes="false"
     inkscape:window-width="1920"
     inkscape:window-height="1021"
     inkscape:window-x="0"
     inkscape:window-y="31"
     inkscape:window-maximized="1" />
  <metadata
     id="metadata5">
    <rdf:RDF>
      <cc:Work
         rdf:about="">
        <dc:format>image/svg+xml</dc:format>
        <dc:type
           rdf:resource="http://purl.org/dc/dcmitype/StillImage" />
        <dc:title></dc:title>
      </cc:Work>
    </rdf:RDF>
  </metadata>
  <g
     inkscape:label="Layer 1"
     inkscape:groupmode="layer"
     id="layer1">
    <path
       sodipodi:nodetypes="sssssssssscccsssscccssscss"
       id="path1043"
       d="M 7.7914883,6.2527629 C 7.0620181,6.1816429 6.0222064,6.0967881 5.0573066,6.0296373 3.8429134,5.9451237 2.5973156,5.8737176 2.5191887,5.8318463 2.3856534,5.7602787 2.2833608,5.4558231 2.1261122,4.9734453 1.9679406,4.4882382 1.8486447,4.0640433 1.8565116,3.6116056 1.8607519,3.3692873 1.9147204,3.3151751 1.9579749,3.1794734 2.1015373,2.7291005 2.3354098,2.6455826 2.648387,2.9329213 c 0.1053969,0.096763 0.1554863,0.1802008 0.2285491,0.3807095 0.050932,0.1397876 0.145648,0.5074819 0.1831056,0.710859 0.015006,0.08149 0.046386,0.1321031 0.2671433,0.4308817 l 0.2501378,0.338545 0.2789312,0.036446 0.278932,0.036447 0.265154,-0.042506 C 7.065328,4.3970814 9.2372384,4.1404439 10.656052,4.085115 c 0.295169,-0.011511 0.351318,-0.00959 0.442072,0.015086 0.196097,0.053329 0.448188,0.2242098 0.746639,0.5061126 l 0.145372,0.1373122 0.05792,0.2379016 4.7e-4,0.2598945 -0.203433,0.2683492 c -0.161559,0.2131494 -0.473678,0.4449732 -0.59157,0.5021077 -0.08104,0.039276 -0.146328,0.050091 -0.56226,0.093139 C 9.716221,6.2059401 8.4960389,6.3002895 8.2681184,6.2923925 8.2082934,6.2903172 7.9938276,6.2724863 7.7915287,6.2527636 Z"
       style="fill:#00a600;fill-opacity:1;stroke:#007f00;stroke-width:0.0104401;stroke-miterlimit:4;stroke-dasharray:none;stroke-opacity:1" />
    <path
       style="fill:none;stroke:#000000;stroke-width:0.1;stroke-linecap:butt;stroke-linejoin:miter;stroke-miterlimit:4;stroke-dasharray:none;stroke-opacity:1"
       d="M 9.9321793,6.2764632 9.9185268,6.6524105"
       id="path878" />
    <path
       inkscape:original-d="m -11.775645,-11.597928 c 0,0 0.169409,2.047909 0.507093,2.9868844 0.427022,1.1873903 0.915143,3.1565549 1.8842293,3.2453399 7.4044647,0.6783764 6.9724672,0.3877416 16.6931646,1.1745206 0.4296157,0.034772 3.8707581,-0.2503827 8.5242381,-0.8136305 1.08562,-0.131401 2.726788,-2.6486679 2.726788,-2.6486679 l -0.09459,-1.4814375 c 0,0 -1.885075,-2.054587 -3.192971,-2.019943 -6.9414772,0.183864 -20.2242797,2.6411404 -20.2242797,2.6411404 l -1.5760245,-0.180727 -1.4787479,-1.9407114 c 0,0 -0.4024885,-2.391814 -1.0947607,-3.299441 -2.2734652,-2.292672 -2.8434572,1.296786 -2.6741662,2.336672 z"
       style="fill:none;stroke:#000000;stroke-width:0.0745691px;stroke-linecap:butt;stroke-linejoin:miter;stroke-opacity:1"
       d="m 1.852009,3.7482367 c 0,0 0.046925,0.6909936 0.1560579,1.0091084 0.1380108,0.4022752 0.2927289,1.0683146 0.6188741,1.1030483 2.4919602,0.2653885 2.347819,0.1652981 5.6198191,0.478722 0.1446092,0.013852 1.3057021,-0.065156 2.8767389,-0.2318616 0.36651,-0.038891 0.93209,-0.8790677 0.93209,-0.8790677 L 12.03106,4.7284668 c 0,0 -0.625072,-0.7017646 -1.066009,-0.696585 C 8.6248446,4.0593705 4.1362922,4.8215135 4.1362922,4.8215135 L 3.6060641,4.7527805 3.1173587,4.0914103 c 0,0 -0.1237611,-0.8080483 -0.3525515,-1.1173597 -0.754779,-0.7839287 -0.964694,0.4228999 -0.9128073,0.7741857 z"
       id="path910"
       sodipodi:nodetypes="casssccscccccc" />
    <path
       transform="matrix(0.33700334,0.00496638,-0.00496638,0.33700334,5.6120328,7.7331095)"
       inkscape:original-d="m 6.5281879,-16.28524 c -0.6992029,-2.207003 6.5078351,-3.19257 6.9175111,-0.621099 0.506699,3.180467 1.857068,12.349375 1.857068,12.349375 l -5.025476,0.5919874 c 0,0 -2.3814048,-8.0031844 -3.7491031,-12.3202634 z"
       clip-path="url(#clipPath861)"
       sodipodi:nodetypes="ssccs"
       id="path853"
       d="m 6.5281879,-16.28524 c -0.6992029,-2.207003 6.5078351,-3.19257 6.9175111,-0.621099 0.506699,3.180467 1.857068,12.349375 1.857068,12.349375 l -5.025476,0.5919874 c 0,0 -2.3814048,-8.0031844 -3.7491031,-12.3202634 z"
       style="fill:none;stroke:#000000;stroke-width:0.165;stroke-linecap:butt;stroke-linejoin:miter;stroke-miterlimit:4;stroke-dasharray:none;stroke-opacity:1" />
    <path
       id="path1041"
       d="M 8.4697523,4.1167629 C 8.4607614,4.0867062 8.3700502,3.7745812 8.2681719,3.4231526 8.1662937,3.0717238 8.0435624,2.6522709 7.9954357,2.491035 7.926468,2.2599764 7.9103949,2.1845081 7.9195562,2.1347561 8.002046,1.6867917 9.2511064,1.4395194 9.8845957,1.745744 c 0.2249313,0.1087293 0.2855923,0.2090062 0.3332423,0.550878 0.100418,0.72045 0.227756,1.6602099 0.227482,1.6788316 -3.58e-4,0.024244 -0.02402,0.027015 -0.5031579,0.058896 -0.4359786,0.029011 -1.3142388,0.109406 -1.4195825,0.1299482 -0.02929,0.00571 -0.039702,-0.00366 -0.052827,-0.047535 z"
       style="fill:#007f00;fill-opacity:1;stroke:#007f00;stroke-width:0.0104401;stroke-miterlimit:4;stroke-dasharray:none;stroke-opacity:1" />
    <path
       sodipodi:nodetypes="cccc"
       id="path1045"
       d="M 8.0213795,1.8451919 8.6845792,4.197813 10.007772,1.8021429 10.388851,3.9260285"
       style="fill:none;stroke:#000000;stroke-width:0.0320188;stroke-linecap:butt;stroke-linejoin:miter;stroke-miterlimit:4;stroke-dasharray:none;stroke-opacity:1" />
    <path
       transform="rotate(0.84430093,7.2649546,4.8021402)"
       inkscape:transform-center-y="-0.037165431"
       inkscape:transform-center-x="-9.4524077e-05"
       d="M 2.622023,4.0201991 2.3910447,3.9028504 2.1634306,4.0265981 2.2036596,3.770662 2.0156319,3.5924282 2.2714731,3.5515996 2.3828798,3.3176974 2.5007693,3.5484001 2.7576501,3.5820744 2.5746686,3.7654851 Z"
       inkscape:randomized="0"
       inkscape:rounded="0"
       inkscape:flatsided="false"
       sodipodi:arg2="1.5568437"
       sodipodi:arg1="0.92852519"
       sodipodi:r2="0.19507"
       sodipodi:r1="0.39014"
       sodipodi:cy="3.7077994"
       sodipodi:cx="2.3883231"
       sodipodi:sides="5"
       id="path1047"
       style="fill:#ff0100;fill-opacity:1;stroke:#ffffff;stroke-width:0.0417929;stroke-miterlimit:4;stroke-dasharray:none;stroke-opacity:1"
       sodipodi:type="star" />
    <path
       id="path1085"
       d="m 12.006827,4.7171351 0.607342,0.17991 -0.578408,0.2916057"
       style="fill:none;stroke:#000000;stroke-width:0.0891754px;stroke-linecap:butt;stroke-linejoin:miter;stroke-opacity:1" />
    <path
       sodipodi:nodetypes="cssc"
       id="path1087"
       d="m 12.258901,5.108695 c 0,0 -0.04504,1.1803685 -0.01582,2.0366153 0.0055,0.1576656 0.465053,-0.03266 0.434566,-0.1874415 C 12.528086,6.1985682 12.258901,5.108695 12.258901,5.108695 Z"
       style="fill:none;stroke:#000000;stroke-width:0.0891754px;stroke-linecap:butt;stroke-linejoin:miter;stroke-opacity:1" />
    <path
       sodipodi:nodetypes="cssc"
       style="fill:none;stroke:#000000;stroke-width:0.0891754px;stroke-linecap:butt;stroke-linejoin:miter;stroke-opacity:1"
       d="m 12.23985,4.7558224 c 0,0 -0.194605,-1.0085802 -0.320281,-1.8786045 -0.02553,-0.1767393 0.551088,-0.2116795 0.534651,-0.033864 -0.06324,0.6840247 -0.21437,1.9124683 -0.21437,1.9124689 z"
       id="path1087-7" />
    <path
       sodipodi:nodetypes="cccc"
       id="path1164"
       d="M 11.129727,5.2090158 8.3768105,5.568793 4.0709018,5.5331068 3.4999722,5.4514577 3.4917528,5.9254284"
       style="fill:none;stroke:#000000;stroke-width:0.0556115;stroke-linecap:butt;stroke-linejoin:miter;stroke-miterlimit:4;stroke-dasharray:none;stroke-opacity:1" />
    <path
       sodipodi:nodetypes="cc"
       id="path1166"
       d="M 8.3715199,5.5695454 8.436942,6.2941317"
       style="fill:none;stroke:#000000;stroke-width:0.0556115;stroke-linecap:butt;stroke-linejoin:miter;stroke-miterlimit:4;stroke-dasharray:none;stroke-opacity:1" />
    <path
       id="path1168"
       d="m 11.091999,5.2314869 0.05505,0.8049989"
       style="fill:none;stroke:#000000;stroke-width:0.0556115;stroke-linecap:butt;stroke-linejoin:miter;stroke-miterlimit:4;stroke-dasharray:none;stroke-opacity:1" />
    <path
       id="path1170"
       d="M 4.0972874,5.608581 4.0699781,5.9653695"
       style="fill:none;stroke:#000000;stroke-width:0.0891754px;stroke-linecap:butt;stroke-linejoin:miter;stroke-opacity:1" />
    <path
       sodipodi:nodetypes="ccscc"
       id="path1204"
       d="M 2.1861692,5.2818402 C 1.7988148,4.940563 1.7783873,4.8049601 1.8259617,4.5927835 c 0,0 0.045631,-0.3784956 0.6321944,-0.098316 0.5865593,0.2801794 1.0100108,0.9524628 1.0100108,0.9524628 z"
       style="fill:none;stroke:#000000;stroke-width:0.0654991px;stroke-linecap:butt;stroke-linejoin:miter;stroke-opacity:1" />
    <path
       sodipodi:nodetypes="ccssscsscccc"
       id="path1206"
       d="M 2.740224,5.3192526 2.2108918,5.2497722 2.1390285,5.1875364 C 2.0173603,5.0821664 1.9405051,5.0401933 1.8720993,4.90629 1.7882133,4.7420844 1.821958,4.8127953 1.8241989,4.6858688 c 0.00189,-0.1073039 0.03408,-0.1364785 0.064202,-0.1836444 0.062072,-0.097168 0.1902901,-0.097881 0.3681246,-0.045841 0.3317659,0.097087 0.7496729,0.4367508 1.0790766,0.8770462 l 0.044744,0.059806 -0.055396,-0.00225 c -0.030469,-0.00124 -0.2935946,-0.03352 -0.584728,-0.071735 z"
       style="fill:#007600;fill-opacity:1;stroke:#000200;stroke-width:0.0014774;stroke-miterlimit:4;stroke-dasharray:none;stroke-opacity:1" />
    <path
       id="path1208"
       d="M 8.0908802,6.2695756 C 7.3308993,6.191445 5.2659715,6.0274864 4.3233473,5.9704273 l -0.200868,-0.012161 0.011947,-0.1727544 0.011947,-0.1727541 -0.043384,-0.0102 c -0.023862,-0.00561 -0.04604,-0.00763 -0.049271,-0.00449 -0.00326,0.00314 -0.010122,0.063197 -0.015293,0.1334478 -0.00515,0.070252 -0.012879,0.1483799 -0.017119,0.1736185 l -0.00767,0.045889 -0.1176877,-0.010135 c -0.064739,-0.00558 -0.1741396,-0.015027 -0.243128,-0.02099 L 3.5273897,5.9090586 3.5304617,5.700603 c 0.00169,-0.1146522 0.0076,-0.2083915 0.013251,-0.2083082 0.00559,8.26e-5 0.1260173,0.017261 0.2675944,0.038173 l 0.2574131,0.038023 2.1292712,0.016485 c 1.171099,0.00907 2.1324222,0.01973 2.1362737,0.023691 0.00733,0.00755 0.062354,0.5724515 0.062095,0.6374047 l -1.492e-4,0.037336 -0.1255314,-0.00413 c -0.069042,-0.00227 -0.1499339,-0.00665 -0.1797594,-0.00971 z"
       style="fill:#007600;fill-opacity:1;stroke:#000200;stroke-width:0.0013854;stroke-miterlimit:4;stroke-dasharray:none;stroke-opacity:1" />
    <path
       id="path1210"
       d="m 8.4644362,6.2402943 c 1.05e-4,-0.016801 -0.012335,-0.1651491 -0.027648,-0.3296631 -0.015312,-0.164514 -0.024932,-0.3021284 -0.021376,-0.3058099 0.00667,-0.0069 2.6340576,-0.3536597 2.6402246,-0.3484497 0.0091,0.00765 0.05654,0.7763048 0.04843,0.7840397 -0.03223,0.030742 -2.3052674,0.2348799 -2.5753389,0.2312875 -0.057771,-7.687e-4 -0.06446,-0.00404 -0.064289,-0.031405 z"
       style="fill:#007600;fill-opacity:1;stroke:#000200;stroke-width:0.0013854;stroke-miterlimit:4;stroke-dasharray:none;stroke-opacity:1" />
    <path
       id="path1212"
       d="M 12.048543,5.2289163 11.083508,5.196174"
       style="fill:none;stroke:#000000;stroke-width:0.0556115;stroke-linecap:butt;stroke-linejoin:miter;stroke-miterlimit:4;stroke-dasharray:none;stroke-opacity:1" />
    <path
       id="path1214"
       d="m 11.178387,5.9680059 c -0.0037,-0.031792 -0.01411,-0.1740006 -0.02323,-0.3160204 -0.0091,-0.1420197 -0.01986,-0.2942801 -0.02386,-0.3383564 l -0.0073,-0.080139 0.415855,0.012989 c 0.22872,0.00714 0.419265,0.016499 0.423434,0.020792 0.02281,0.023488 -0.405819,0.5225358 -0.525899,0.6123067 -0.07357,0.054993 -0.225215,0.1466342 -0.242246,0.1463833 -0.0056,-8.26e-5 -0.01315,-0.026161 -0.0168,-0.057952 z"
       style="fill:#007600;fill-opacity:1;stroke:#000200;stroke-width:0.00846636;stroke-miterlimit:4;stroke-dasharray:none;stroke-opacity:1" />
    <path
       sodipodi:nodetypes="sssss"
       id="path867"
       d="M 8.6233955,4.2426468 C 8.4101405,3.5173572 10.760663,3.2026966 10.857973,3.8548677 11.024382,4.9701043 11.235011,6.0089802 11.469221,7.5059687 11.551246,8.0302374 9.8585257,8.3595703 9.6931691,7.8553454 9.2598276,6.5339484 8.9450788,5.3367035 8.6233955,4.2426468 Z"
       style="fill:none;stroke:#000000;stroke-width:0.0556115;stroke-linecap:butt;stroke-linejoin:miter;stroke-miterlimit:4;stroke-dasharray:none;stroke-opacity:1" />
    <path
       id="path1039"
       d="M 10.023886,8.0433889 C 9.9676262,8.0296442 9.8999964,8.0068234 9.8735982,7.992675 9.7587639,7.9311312 9.743108,7.898132 9.5771041,7.3677471 9.2531657,6.3327589 8.650795,4.2277678 8.6521548,4.1354994 8.6552007,3.9288135 8.9457966,3.7284973 9.4049463,3.616578 c 0.2521705,-0.061467 0.4119022,-0.079178 0.6707307,-0.07437 0.357325,0.00665 0.572898,0.071047 0.687377,0.2053713 0.0393,0.046121 0.05429,0.085875 0.06865,0.1820733 0.03749,0.2513232 0.155996,0.956511 0.321085,1.910652 0.244976,1.4158512 0.285681,1.6797746 0.270564,1.7542794 -0.02668,0.1315056 -0.257701,0.2918031 -0.55076,0.3821576 -0.278257,0.085791 -0.650642,0.1150338 -0.8487,0.066646 z"
       style="fill:#005c00;fill-opacity:1;stroke:#005c00;stroke-width:0.0104401;stroke-miterlimit:4;stroke-dasharray:none;stroke-opacity:1" />
    <path
       transform="matrix(0.33154474,-0.06061361,0.06061361,0.33154474,6.3822627,7.7013956)"
       sodipodi:type="star"
       style="fill:#ff0100;fill-opacity:1;stroke:#ffffff;stroke-width:0.124;stroke-miterlimit:4;stroke-dasharray:none;stroke-opacity:1"
       id="path1047-5"
       sodipodi:sides="5"
       sodipodi:cx="11.744834"
       sodipodi:cy="-7.8811622"
       sodipodi:r1="1.1575482"
       sodipodi:r2="0.57877409"
       sodipodi:arg1="0.92852519"
       sodipodi:arg2="1.5568437"
       inkscape:flatsided="false"
       inkscape:rounded="0"
       inkscape:randomized="0"
       d="m 12.438223,-6.9542701 -0.685314,-0.3481743 -0.675333,0.3671601 0.11936,-0.7593643 -0.557879,-0.528821 0.759082,-0.1211386 0.330545,-0.6939895 0.349779,0.6844966 0.762167,0.099912 -0.542907,0.5441807 z"
       inkscape:transform-center-x="0.030651833"
       inkscape:transform-center-y="0.34865723" />
    <path
       inkscape:transform-center-y="0.25834483"
       inkscape:transform-center-x="0.022711953"
       d="m 12.438223,-6.9542701 -0.685314,-0.3481743 -0.675333,0.3671601 0.11936,-0.7593643 -0.557879,-0.528821 0.759082,-0.1211386 0.330545,-0.6939895 0.349779,0.6844966 0.762167,0.099912 -0.542907,0.5441807 z"
       inkscape:randomized="0"
       inkscape:rounded="0"
       inkscape:flatsided="false"
       sodipodi:arg2="1.5568437"
       sodipodi:arg1="0.92852519"
       sodipodi:r2="0.57877409"
       sodipodi:r1="1.1575482"
       sodipodi:cy="-7.8811622"
       sodipodi:cx="11.744834"
       sodipodi:sides="5"
       id="path1047-5-6"
       style="fill:#ff0100;fill-opacity:1;stroke:#ffffff;stroke-width:0.124;stroke-miterlimit:4;stroke-dasharray:none;stroke-opacity:1"
       sodipodi:type="star"
       transform="matrix(0.24566484,-0.04491288,0.04491288,0.24566484,8.034508,9.9891198)" />
    <path
       id="path1216"
       d="M 3.0058553,5.8555363 C 2.7833684,5.8319527 2.5818593,5.8042706 2.5580567,5.7940201 2.4722094,5.7570497 2.3403993,5.5661682 2.2740453,5.382728 2.2597463,5.343193 2.2615341,5.339691 2.2957274,5.3401949 c 0.020491,3.019e-4 0.2825305,0.032214 0.582302,0.070913 0.2997697,0.0387 0.5558353,0.070523 0.5690311,0.070718 0.020417,3.009e-4 0.023528,0.031674 0.02089,0.2106762 -0.00281,0.1906077 -0.00565,0.2101161 -0.030337,0.2081185 -0.01498,-0.00121 -0.2092726,-0.0215 -0.4317592,-0.045083 z"
       style="fill:#007600;fill-opacity:1;stroke:#000200;stroke-width:0.00971675;stroke-miterlimit:4;stroke-dasharray:none;stroke-opacity:1" />
    <path
       id="path1222"
       d="M 12.146045,3.9406339 C 12.105205,3.7054538 12.048597,3.3656029 12.020251,3.18541 l -0.05154,-0.3276233 0.03329,-0.026152 c 0.04522,-0.035528 0.195106,-0.062431 0.277765,-0.049857 0.09579,0.014571 0.1301,0.036786 0.12102,0.078353 -0.0042,0.018879 -0.01229,0.090356 -0.01816,0.158833 -0.02364,0.276139 -0.139661,1.2932544 -0.1506,1.3203002 -0.0073,0.018076 -0.03965,-0.131854 -0.08598,-0.3986292 z"
       style="fill:#ffffff;fill-opacity:1;stroke:#000200;stroke-width:0.00971675;stroke-miterlimit:4;stroke-dasharray:none;stroke-opacity:1" />
    <path
       id="path1224"
       d="m 12.293946,7.0121277 c -0.01304,-0.2572172 -0.01101,-1.2995321 0.0027,-1.3781859 0.01323,-0.076041 0.01324,-0.076027 0.07691,0.1897992 0.03502,0.1462157 0.107045,0.4656268 0.160045,0.7098022 0.09555,0.4402081 0.09611,0.4442806 0.06671,0.4824729 -0.0374,0.048579 -0.168073,0.1199167 -0.242336,0.1322929 l -0.05661,0.00944 z"
       style="fill:#ffffff;fill-opacity:1;stroke:#000200;stroke-width:0.00971675;stroke-miterlimit:4;stroke-dasharray:none;stroke-opacity:1" />
    <path
       id="path1228"
       d="m 12.089828,4.9982517 c -0.01131,-0.1262642 -0.0096,-0.1996029 0.0047,-0.1988766 0.0064,3.261e-4 0.09079,0.024778 0.18747,0.054336 0.13286,0.040618 0.170663,0.057765 0.154793,0.070214 -0.01154,0.00906 -0.09242,0.050862 -0.179723,0.092892 l -0.158742,0.07642 z"
       style="fill:#ffffff;fill-opacity:1;stroke:#000200;stroke-width:0.00971675;stroke-miterlimit:4;stroke-dasharray:none;stroke-opacity:1" />
    <path
       sodipodi:nodetypes="cc"
       style="fill:none;stroke:#000000;stroke-width:0.0711121;stroke-linecap:butt;stroke-linejoin:miter;stroke-miterlimit:4;stroke-dasharray:none;stroke-opacity:1"
       d="M 2.4440723,8.1277585 C 7.7383766,6.619136 7.488368,6.8229673 7.488368,6.8229673"
       id="path833"
       clip-path="url(#clipPath870)"
       transform="matrix(1.1543332,-0.08172244,0,0.99958678,-3.2896572,0.01362546)" />
    <path
       sodipodi:nodetypes="cc"
       id="path833-3"
       d="M 2.6671218,8.9369232 C 8.3305597,7.0462111 8.1828808,7.2362141 8.1828808,7.2362141"
       style="fill:none;stroke:#000000;stroke-width:0.0720281;stroke-linecap:butt;stroke-linejoin:miter;stroke-miterlimit:4;stroke-dasharray:none;stroke-opacity:1"
       clip-path="url(#clipPath866)"
       transform="matrix(1.1836657,-0.08379908,0,0.99907356,-3.5099748,0.03305675)" />
    <path
       style="fill:none;stroke:#000000;stroke-width:0.065;stroke-linecap:butt;stroke-linejoin:miter;stroke-miterlimit:4;stroke-dasharray:none;stroke-opacity:1"
       d="M 7.3996099,6.8160209 C 8.2478437,6.6081803 10.030728,6.5492092 10.030728,6.5492092"
       id="path852"
       clip-path="url(#clipPath862)"
       transform="matrix(2.2939903,-0.16240588,0,0.98560131,-11.701284,0.70582767)" />
    <path
       style="fill:none;stroke:#000000;stroke-width:0.065;stroke-linecap:butt;stroke-linejoin:miter;stroke-miterlimit:4;stroke-dasharray:none;stroke-opacity:1"
       d="M 8.1828806,7.2362141 C 8.6874219,7.146301 10.04165,7.045558 10.04165,7.045558"
       id="path854"
       clip-path="url(#clipPath858)"
       transform="matrix(2.7685855,-0.28598498,0.04433715,0.96875465,-16.820037,1.9024016)" />
    <path
       id="path1230"
       d="m -0.41117873,7.8667835 0.0639497,0.8559746"
       style="fill:none;stroke:#000000;stroke-width:0.0706849;stroke-linecap:butt;stroke-linejoin:miter;stroke-miterlimit:4;stroke-dasharray:none;stroke-opacity:1" />
    <path
       id="path1337"
       d="m 11.225457,5.51624 0.03342,0.3614152"
       style="fill:none;stroke:#000000;stroke-width:0.108746;stroke-linecap:butt;stroke-linejoin:miter;stroke-miterlimit:4;stroke-dasharray:none;stroke-opacity:1" />
    <path
       sodipodi:nodetypes="ccccc"
       id="path1339"
       d="M 11.255153,5.835181 11.270824,6.2651558 6.2501926,7.0242974 0.00991681,9.3376114 -0.36724286,8.7782978"
       style="fill:none;stroke:#000000;stroke-width:0.0706849;stroke-linecap:butt;stroke-linejoin:miter;stroke-miterlimit:4;stroke-dasharray:none;stroke-opacity:1" />
    <path
       id="path1341"
       d="m -0.30948605,8.5487875 c -0.006387,-0.064812 -0.016458,-0.1948176 -0.0223698,-0.2889137 -0.005916,-0.094092 -0.0152315,-0.201508 -0.0207093,-0.2386934 l -0.00996,-0.06761 0.16411105,-0.053868 C 0.14428302,7.78721 2.488539,7.0580574 3.1101993,6.8705958 3.9451522,6.6188151 4.7417261,6.3914995 5.0491882,6.3172733 5.6839662,6.1640283 7.5500528,5.9277051 9.89666,5.7033842 c 0.367923,-0.035169 0.800978,-0.077132 0.962346,-0.093245 0.292072,-0.029169 0.293447,-0.029136 0.305125,0.00682 0.02154,0.066332 0.01368,0.2085135 -0.01198,0.2165229 -0.01333,0.00416 -0.473597,0.066471 -1.022816,0.1384643 C 7.7577919,6.2828233 6.1626308,6.5156834 5.8721968,6.5934044 5.2487291,6.7602463 3.2927328,7.4129895 0.88881202,8.2564302 0.24825943,8.4811741 -0.2807864,8.6654077 -0.2868456,8.6658367 -0.2929046,8.6662656 -0.303092,8.6135957 -0.3094837,8.5487844 Z"
       style="fill:#d3d3d6;fill-opacity:1;stroke:#000200;stroke-width:0.00437634;stroke-miterlimit:4;stroke-dasharray:none;stroke-opacity:1" />
    <path
       id="path1343"
       d="M 0.0038012,9.2378925 C -0.07541631,9.1319504 -0.31063841,8.7742184 -0.30454167,8.7689557 -0.29863268,8.7638563 1.5932667,8.103432 2.497467,7.7908317 3.8337938,7.3288364 5.2192787,6.8733252 5.7813352,6.711182 6.0693483,6.6280953 6.2329646,6.5970481 6.9303075,6.4931583 7.9036009,6.3481575 10.956805,5.9321109 11.145815,5.9187296 l 0.07258,-0.00514 v 0.1585968 0.1585921 l -0.09499,0.016007 c -0.05225,0.0088 -1.1737972,0.1788863 -2.4923412,0.3779638 L 6.2337126,6.9867026 3.203097,8.1104084 C 1.5362588,8.7284476 0.14231135,9.2453742 0.10543636,9.2591383 0.03932514,9.2838136 0.03790898,9.2835236 0.00379545,9.2378876 Z"
       style="fill:#bdbbb9;fill-opacity:1;stroke:#000200;stroke-width:0.00408366;stroke-miterlimit:4;stroke-dasharray:none;stroke-opacity:1" />
  </g>
</svg>
